<?xml version="1.0" encoding="UTF-8" standalone="no"?>
<svg
   viewBox="0 0 2688.9999 2880.9332"
   width="2689"
   height="2880.9331"
   version="1.1"
   id="svg97"
   sodipodi:docname="SO_logo.svg"
   inkscape:version="1.1 (c68e22c387, 2021-05-23)"
   xmlns:inkscape="http://www.inkscape.org/namespaces/inkscape"
   xmlns:sodipodi="http://sodipodi.sourceforge.net/DTD/sodipodi-0.dtd"
   xmlns:xlink="http://www.w3.org/1999/xlink"
   xmlns="http://www.w3.org/2000/svg"
   xmlns:svg="http://www.w3.org/2000/svg">
  <sodipodi:namedview
     id="namedview99"
     pagecolor="#505050"
     bordercolor="#eeeeee"
     borderopacity="1"
     inkscape:pageshadow="0"
     inkscape:pageopacity="0"
     inkscape:pagecheckerboard="0"
     showgrid="false"
     inkscape:zoom="0.12616706"
     inkscape:cx="9824.2761"
     inkscape:cy="994.71291"
     inkscape:window-width="3440"
     inkscape:window-height="1351"
     inkscape:window-x="-9"
     inkscape:window-y="-9"
     inkscape:window-maximized="1"
     inkscape:current-layer="g95" />
  <desc
     id="desc9">SO_logo.dxf - scale = 25.4, origin = (0.0, 0.0), method = file</desc>
  <defs
     id="defs23">
    <rect
       x="7212.6594"
       y="-15.851999"
       width="15.425433"
       height="239.37932"
       id="rect182318" />
    <rect
       x="4692.1916"
       y="1394.9759"
       width="122.85299"
       height="97.093492"
       id="rect38055" />
    <rect
       x="3348.7347"
       y="1117.5659"
       width="3257.5858"
       height="491.41198"
       id="rect14861" />
    <linearGradient
       inkscape:collect="always"
       id="linearGradient2894">
      <stop
         style="stop-color:#000000;stop-opacity:1;"
         offset="0"
         id="stop2890" />
      <stop
         style="stop-color:#000000;stop-opacity:0;"
         offset="1"
         id="stop2892" />
    </linearGradient>
    <marker
       id="DistanceX"
       orient="auto"
       refX="0"
       refY="0"
       style="overflow:visible">
      <path
         d="M 3,-3 -3,3 M 0,-5 V 5"
         style="stroke:#000000;stroke-width:0.5"
         id="path11" />
    </marker>
    <pattern
       id="Hatch"
       patternUnits="userSpaceOnUse"
       width="8"
       height="8"
       x="0"
       y="0">
      <path
         d="M8 4 l-4,4"
         stroke="#000000"
         stroke-width="0.25"
         linecap="square"
         id="path14" />
      <path
         d="M6 2 l-4,4"
         stroke="#000000"
         stroke-width="0.25"
         linecap="square"
         id="path16" />
      <path
         d="M4 0 l-4,4"
         stroke="#000000"
         stroke-width="0.25"
         linecap="square"
         id="path18" />
    </pattern>
    <symbol
       id="*MODEL_SPACE" />
    <symbol
       id="*PAPER_SPACE" />
    <radialGradient
       inkscape:collect="always"
       xlink:href="#linearGradient2894"
       id="radialGradient2896"
       cx="1344.4476"
       cy="1440.9555"
       fx="1344.4476"
       fy="1440.9555"
       r="1342.4662"
       gradientTransform="matrix(0.76704106,0,0,-0.82161623,8473.9616,948.26371)"
       gradientUnits="userSpaceOnUse" />
    <rect
       x="3348.7346"
       y="1117.5659"
       width="3257.5857"
       height="491.41199"
       id="rect14861-2" />
    <radialGradient
       inkscape:collect="always"
       xlink:href="#linearGradient2894"
       id="radialGradient2896-3"
       cx="1344.4476"
       cy="1440.9554"
       fx="1344.4476"
       fy="1440.9554"
       r="1342.4662"
       gradientTransform="matrix(0.61832243,0,0,-0.66231623,4796.5769,4347.2286)"
       gradientUnits="userSpaceOnUse" />
    <rect
       x="3348.7346"
       y="1117.5659"
       width="3257.5857"
       height="491.41199"
       id="rect14861-8" />
  </defs>
  <g
     inkscape:groupmode="layer"
     inkscape:label="0"
     id="g95"
     transform="translate(1344.5,317.98032)">
    <path
       d="m 120,2322.5197 a 120,120 0 1 0 -240,0 120,120 0 1 0 240,0 z"
       style="fill:none;stroke:#000000"
       id="path25" />
    <path
       d="m 157.26702,639.98564 a 48,48 0 0 0 -42.93265,-69.46596 h -228.66874 a 48,48 0 0 0 -42.9325,69.46626 l 114.334409,228.66882 a 48,48 0 0 0 85.864966,-9e-5 z"
       style="fill:none;stroke:#000000"
       id="path27" />
    <path
       d="m -276,306.51968 a 36,36 0 0 0 72,0 V 18.519685 a 36,36 0 0 0 -72,0 z"
       style="fill:none;stroke:#000000"
       id="path29" />
    <path
       d="m -156,306.51968 a 36,36 0 0 0 72,0 V 18.519685 a 36,36 0 0 0 -72,0 z"
       style="fill:none;stroke:#000000"
       id="path31" />
    <path
       d="m -36,306.51968 a 36,36 0 0 0 72,0 V 18.519685 a 36,36 0 0 0 -72,0 z"
       style="fill:none;stroke:#000000"
       id="path33" />
    <path
       d="m 960,1122.5197 a 240,240 0 1 0 -480,0 240,240 0 1 0 480,0 z"
       style="fill:none;stroke:#000000"
       id="path35" />
    <path
       d="m 276,18.519685 a 36,36 0 0 0 -72,0 V 306.51968 a 36,36 0 0 0 72,0 z"
       style="fill:none;stroke:#000000"
       id="path37" />
    <path
       d="m 84,306.51968 a 36,36 0 0 0 72,0 V 18.519685 a 36,36 0 0 0 -72,0 z"
       style="fill:none;stroke:#000000"
       id="path39" />
    <path
       style="fill:none;stroke:#000000"
       d="m -821.823,952.814 93.338,93.336"
       id="path41" />
    <path
       style="fill:none;stroke:#000000"
       d="m -711.515,1046.15 93.338,-93.336"
       id="path43" />
    <path
       d="m -550.29437,1020.6963 a 48,48 0 0 0 -67.88225,-67.88224"
       style="fill:none;stroke:#000000"
       id="path45" />
    <path
       style="fill:none;stroke:#000000"
       d="m -550.294,1020.7 -93.338,93.33"
       id="path47" />
    <path
       style="fill:none;stroke:#000000"
       d="m -643.632,1131 93.338,93.34"
       id="path49" />
    <path
       d="m -618.17662,1292.2253 a 48,48 0 1 0 67.88225,-67.8822"
       style="fill:none;stroke:#000000"
       id="path51" />
    <path
       style="fill:none;stroke:#000000"
       d="m -618.177,1292.23 -93.338,-93.34"
       id="path53" />
    <path
       style="fill:none;stroke:#000000"
       d="m -728.485,1198.89 -93.338,93.34"
       id="path55" />
    <path
       d="m -889.70563,1224.3431 a 48,48 0 0 0 67.88225,67.8822"
       style="fill:none;stroke:#000000"
       id="path57" />
    <path
       style="fill:none;stroke:#000000"
       d="M -889.706,1224.34 -796.368,1131"
       id="path59" />
    <path
       style="fill:none;stroke:#000000"
       d="m -796.368,1114.03 -93.338,-93.33"
       id="path61" />
    <path
       d="m -821.82338,952.81406 a 48,48 0 0 0 -67.88225,67.88224"
       style="fill:none;stroke:#000000"
       id="path63" />
    <path
       d="m 96,1986.5197 a 144,144 0 0 0 144,-144 h 480 a 480,480 0 0 0 480,-480 144,144 0 0 0 144,-144 v -192 a 144,144 0 0 0 -144,-144.00002 480,480 0 0 0 -480,-480 v -240 a 480,480 0 0 0 -480,-480 h -480 a 480,480 0 0 0 -480,480 v 240 a 480,480 0 0 0 -480,480 144,144 0 0 0 -144,144.00002 v 192 a 144,144 0 0 0 144,144 480,480 0 0 0 480,480 h 480 a 144,144 0 0 0 144,144 v 116.0364 a 240,240 0 1 0 192,0 z"
       style="fill:none;stroke:#000000"
       id="path65" />
    <path
       d="m -728.48528,1046.1522 a 12,12 0 0 0 16.97056,0"
       style="fill:none;stroke:#000000"
       id="path67" />
    <path
       d="m -643.63247,1114.0344 a 12,12 0 0 0 0,16.9706"
       style="fill:none;stroke:#000000"
       id="path69" />
    <path
       d="m -711.51476,1198.8872 a 12,12 0 0 0 -16.97056,1e-4"
       style="fill:none;stroke:#000000"
       id="path71" />
    <path
       d="m -796.36753,1131.005 a 12,12 0 0 0 0,-16.9706"
       style="fill:none;stroke:#000000"
       id="path73" />
    <path
       d="m -821.82338,952.81406 a 48,48 0 0 0 -67.88225,67.88224 l 93.3381,93.3381 a 12,12 0 0 1 0,16.9706 l -93.3381,93.3381 a 48,48 0 0 0 67.88225,67.8822 l 93.33806,-93.338 a 12,12 0 0 1 16.97056,-1e-4 l 93.33814,93.3381 a 48,48 0 0 0 67.88225,-67.8822 l -93.3381,-93.3381 a 12,12 0 0 1 0,-16.9706 l 93.3381,-93.3381 a 48,48 0 0 0 -67.88225,-67.88224 l -93.3381,93.33814 a 12,12 0 0 1 -16.97056,0 z"
       style="fill:none;stroke:#000000"
       id="path75" />
    <path
       d="m 157.26702,639.98564 a 48,48 0 0 0 -42.93265,-69.46596 h -228.66874 a 48,48 0 0 0 -42.9325,69.46626 l 114.334409,228.66882 a 48,48 0 0 0 85.864966,-9e-5 z"
       style="fill:none;stroke:#000000"
       id="path77" />
    <path
       d="m 120,2322.5197 a 120,120 0 1 0 -240,0 120,120 0 1 0 240,0 z"
       style="fill:none;stroke:#000000"
       id="path79" />
    <path
       d="m -156,306.51968 a 36,36 0 0 0 72,0 V 18.519685 a 36,36 0 0 0 -72,0 z"
       style="fill:none;stroke:#000000"
       id="path81" />
    <path
       d="m 84,306.51968 a 36,36 0 0 0 72,0 V 18.519685 a 36,36 0 0 0 -72,0 z"
       style="fill:none;stroke:#000000"
       id="path83" />
    <path
       d="m -36,306.51968 a 36,36 0 0 0 72,0 V 18.519685 a 36,36 0 0 0 -72,0 z"
       style="fill:none;stroke:#000000"
       id="path85" />
    <path
       d="m 960,1122.5197 a 240,240 0 1 0 -480,0 240,240 0 1 0 480,0 z"
       style="fill:none;stroke:#000000"
       id="path87" />
    <path
       d="m -276,306.51968 a 36,36 0 0 0 72,0 V 18.519685 a 36,36 0 0 0 -72,0 z"
       style="fill:none;stroke:#000000"
       id="path89" />
    <path
       d="m 276,18.519685 a 36,36 0 0 0 -72,0 V 306.51968 a 36,36 0 0 0 72,0 z"
       style="fill:none;stroke:#000000"
       id="path91" />
    <path
       d="m -1200,1362.5197 a 480,480 0 0 0 480,480 h 480 a 144,144 0 0 0 144,144 v 116.0364 a 240,240 0 1 0 192,0 v -116.0364 a 144,144 0 0 0 144,-144 h 480 a 480,480 0 0 0 480,-480 144,144 0 0 0 144,-144 v -192 a 144,144 0 0 0 -144,-144.00002 480,480 0 0 0 -480,-480 v -240 a 480,480 0 0 0 -480,-480 h -480 a 480,480 0 0 0 -480,480 v 240 a 480,480 0 0 0 -480,480 144,144 0 0 0 -144,144.00002 v 192 a 144,144 0 0 0 144,144 z"
       style="fill:none;stroke:#000000"
       id="path93" />
    <path
       style="fill:#000000;fill-opacity:1;stroke:url(#radialGradient2896);stroke-width:1.51989"
       d="m 9478.6096,-1336.5402 c -60.583,9.6612 -110.384,46.1124 -137.268,100.4726 -21.424,43.32 -24.566,95.7003 -8.449,140.8256 15.81,44.2645 50.462,83.6896 90.053,102.45719 l 9.155,4.34 0.09,45.7573 0.09,45.7574 -11.093,0.8391 c -50.056,3.7856 -94.028,47.7651 -97.918,97.9356 l -0.846,10.9423 -200.033,0.5661 c -222.231,0.6288 -212.879,0.2248 -256.775,11.09423 -128.047,31.7078 -228.919,128.9933 -265.49,256.0526 -7.178,24.9385 -11.071,47.5505 -13.232,76.8754 l -1.805,24.4967 -11.473,0.901 c -44.519,3.4967 -84.734,39.0078 -95.329,84.1798 -2.516,10.7254 -2.776,19.889 -2.776,97.7092 0,77.82009 0.264,86.98379 2.776,97.70909 5.35,22.8091 19.879,45.877702 38.298,60.809002 16.862,13.668799 42.682,23.7932 60.816,23.8465 l 7.657,0.018 1.836,24.6983 c 1.959,26.3480996 4.708,44.612 9.669,64.2154 13.185,52.106804 36.244,99.057108 69.423,141.349708 11.706,14.9214 47.319,50.0845 61.827,61.0463 60.783,45.9237 125.969,70.814 200.306,76.4846 11.043,0.8464 21.217,1.5335 22.607,1.5362 2.329,0 2.584,8.5255 3.211,107.5352 0.573,90.2794 1.092,110.3372 3.24,125.0111 9.567,65.3682 32.599,121.26262 71.395,173.26832 14.598,19.57 52.715,57.5161 72.745,72.4212 49.694,36.9787 105.336,60.1125 168.337,69.9886 16.242,2.5454 32.916,2.7393 235.584,2.7393 205.772,0 219.135,-0.1639 236.343,-2.8504 78.146,-12.2121 145.624,-45.4031 201.227,-98.9823 62.4544,-60.179 98.2004,-130.99852 111.2384,-220.38422 1.161,-7.9613 2.015,-49.5422 2.473,-120.4508 0.646,-99.7241 0.901,-108.2933 3.229,-108.296 1.391,0 11.763,-0.6916 23.049,-1.5407 72.507,-5.4304 136.36,-29.3906 196.065,-73.5725 19.203,-14.2088 57.324,-52.4616 72.066,-72.3129 44.278,-59.6257 69.111,-128.527104 73.265,-203.285608 l 1.035,-18.6188 7.751,-0.018 c 12.088,-0.036 26.216,-3.982601 41.95,-11.721201 11.934,-5.8699 16.698,-9.355499 27.469,-20.097299 10.574,-10.5462 14.347,-15.628302 20.014,-26.960302 12.495,-24.9858 12.553,-25.5515 12.553,-123.58579 0,-97.6677 -0.1,-98.7017 -12.186,-122.8379 -16.468,-32.8962 -50.479,-56.2675 -85.937,-59.0524 l -11.487,-0.9028 -1.759,-24.4954 c -6.422,-89.422 -40.866,-167.2987 -102.124,-230.8995 -48.664,-50.5248 -108.804,-85.3008 -176.36,-101.9802 -44.252,-10.92603 -34.701,-10.51213 -257.0224,-11.14133 l -200.027,-0.566 -0.91,-11.7695 c -1.052,-13.6434 -7.195,-32.3435 -14.847,-45.1952 -7.334,-12.3187 -24.539,-29.3013 -37.458,-36.9719 -13.57,-8.0584 -31.13,-13.8015 -45.639,-14.9261 l -11.019,-0.8546 v -45.3518 -45.3516 l 7.98,-3.9946 c 25.2,-12.61529 55.188,-38.70569 69.728,-60.66809 21.658,-32.7128 31.724,-65.5026 31.724,-103.3365 0,-30.7714 -5.715,-55.0744 -19.393,-82.4609 -34.701,-69.4823 -113.768,-110.5377 -189.592,-98.4465 z m 45.597,89.7128 c 34.356,7.1882 62.844,34.4447 71.422,68.3356 3.505,13.846 2.981,34.5748 -1.239,49.1503 -12.604,43.5136 -55.55,71.6381 -100.453,65.7857 -57.357,-7.4754 -93.933,-63.0454 -77.909,-118.3684 13.428,-46.3596 60.844,-74.8073 108.179,-64.9032 z m 568.9174,829.87142 c 56.457,10.8319 105.203,48.3221 130.417,100.3034 35.776,73.756 20.301,159.22939 -39.08,215.85179 -56.13,53.522402 -138.654,65.840602 -208.8464,31.173901 -49.638,-24.514999 -83.006,-65.496501 -97.71,-120.002691 -3.586,-13.2905 -3.932,-17.1845 -4.008,-44.9489 -0.09,-26.6578 0.337,-32.0509 3.325,-43.8334 19.28,-76.0153 81.07,-131.1671 157.7914,-140.8409 14.206,-1.7912 42.667,-0.6661 58.111,2.2968 z m -1227.8374,43.4155 c 4.849,2.1994 17.915,14.151 45.661,41.7637 29.459,29.3193 39.762,38.6825 42.566,38.6825 2.808,0 13.232,-9.5062 43.254,-39.4417 25.857,-25.7831 41.511,-40.2572 45.205,-41.7969 3.107,-1.2955 9.984,-2.3554 15.28,-2.3554 17.346,0 31.981,10.719 36.268,26.5647 2.446,9.0347 0.765,22.4465 -3.759,30.0518 -2.115,3.5524 -20.988,23.5527 -41.941,44.4448 -20.954,20.8924 -38.098,38.989 -38.098,40.2147 0,1.2257 17.698,20.0397 39.327,41.8084 21.631,21.7689 40.601,41.97349 42.156,44.89929 2.08,3.9093 2.835,8.5748 2.85,17.5981 0,11.0337 -0.445,13.0323 -4.578,19.7183 -6.634,10.7313 -16.437,16.397902 -29.657,17.144902 -17.793,1.0053 -17.758,1.029 -62.348,-43.250802 -30.439,-30.22779 -41.271,-40.08859 -44.038,-40.08859 -2.768,0 -13.209,9.5076 -42.466,38.67239 -42.868,42.731702 -45.769,44.831702 -62.022,44.888602 -15.52,0.055 -27.018,-6.835402 -34.191,-20.485302 -4.201,-7.9968 -4.446,-24.9373 -0.473,-32.6777 1.503,-2.9257 20.443,-23.13199 42.09,-44.90279 29.656,-29.8255 39.359,-40.4874 39.359,-43.2509 0,-2.7636 -9.703,-13.4256 -39.359,-43.2511 -21.647,-21.7706 -40.587,-41.9769 -42.09,-44.9025 -3.992,-7.7781 -3.726,-24.6647 0.519,-32.8217 3.654,-7.0223 12.275,-15.1779 19.258,-18.2187 7.219,-3.1435 23.234,-2.6347 31.229,0.9919 z m 658.808,316.643391 c 3.767,2.2075 8.511,6.221001 10.544,8.919101 5.611,7.4481 93.34,183.834408 95.295,191.596408 3.939,15.6422 -4.537,33.1946 -19.756,40.9129 l -8.241,4.1799 h -96.728 -96.729 l -8.241,-4.1799 c -15.163,-7.6892 -23.304,-24.4025 -19.707,-40.4542 0.874,-3.9088 22.185,-48.300104 47.353,-98.647804 49.031,-98.081804 50.185,-99.980505 63.918,-105.030705 9.629,-3.5413 23.637,-2.368 32.292,2.7043 z m -192.633,420.492909 c 6.083,2.2979 12.559,8.7857 15.836,15.8624 2.662,5.7489 2.814,12.3596 2.814,121.5911 0,129.4341 0.592,122.3147 -11.06,132.5483 -13.296,11.67352 -35.639,6.9848 -43.431,-9.1134 -3.249,-6.7099 -3.252,-6.8436 -2.844,-125.2231 l 0.409,-118.507 4.056,-6.1274 c 6.967,-10.5258 22.396,-15.4994 34.222,-11.0309 z m 94.129,1.2914 c 3.441,1.5616 8.228,5.4267 10.638,8.5873 l 4.384,5.7462 v 121.8286 121.8278 l -4.384,5.747 c -5.178,6.79 -14.503,11.4286 -22.974,11.4286 -12.385,0 -25.467,-9.6184 -27.36,-20.117 -0.482,-2.6919 -0.682,-57.9548 -0.436,-122.8051 l 0.445,-117.9108 4.383,-5.7462 c 5.18,-6.7891 14.505,-11.4277 22.975,-11.4277 3.344,0 8.895,1.2787 12.336,2.8413 z m 95.192,1.6008 c 2.87,1.9675 6.866,5.9818 8.881,8.9213 l 3.663,5.3458 v 120.2933 120.2943 l -4.08,6.1639 c -7.186,10.8589 -23.031,15.6149 -35.153,10.5495 -6.249,-2.611 -13.416,-10.1482 -15.739,-16.5505 -2.564,-7.0703 -2.564,-233.8431 0,-240.9125 2.242,-6.1785 9.346,-13.8212 15.403,-16.5696 6.93,-3.1452 20.666,-1.892 27.025,2.4645 z m 88.538,-1.6363 c 7.034,3.2462 12.033,8.2406 14.338,14.3253 1.097,2.8958 1.621,42.268 1.621,121.8723 0,79.6044 -0.528,118.9756 -1.621,121.8724 -5.178,13.6655 -23.241,20.82142 -37.509,14.8595 -7.221,-3.0169 -10.673,-6.2148 -14.228,-13.1805 -2.751,-5.3903 -2.878,-10.8461 -2.878,-123.5514 0,-112.7061 0.128,-118.162 2.878,-123.5523 3.494,-6.8446 6.939,-10.0981 13.886,-13.1113 7.143,-3.0979 16.179,-2.9186 23.513,0.4641 z m 96.191,2.054 c 3.588,2.3734 7.341,6.6917 9.257,10.6514 3.2,6.6098 3.224,7.5426 3.224,123.4922 0,115.9497 0,116.8816 -3.224,123.4914 -5.892,12.173 -21.845,18.5762 -35.256,14.1497 -6.837,-2.2561 -15.551,-11.8172 -17.646,-19.3617 -2.215,-7.9758 -2.232,-228.522 0,-236.4923 1.92,-6.9102 9.536,-15.9617 15.84,-18.8229 7.199,-3.2681 20.626,-1.8729 27.824,2.8922 z"
       id="path1408"
       inkscape:export-filename="C:\Users\diego\Downloads\Full_MiddleGlyph.png"
       inkscape:export-xdpi="96"
       inkscape:export-ydpi="96" />
    <text
       xml:space="preserve"
       transform="matrix(9.100655,0,0,9.100655,-26901.252,-10914.147)"
       id="text14859"
       style="font-style:normal;font-variant:normal;font-weight:normal;font-stretch:normal;font-size:192px;line-height:1.25;font-family:'Franklin Gothic Demi';-inkscape-font-specification:'Franklin Gothic Demi';white-space:pre;shape-inside:url(#rect14861);fill:#454545;fill-opacity:1;stroke:none"
       inkscape:export-filename="C:\Users\diego\Downloads\Full_MiddleGlyph.png"
       inkscape:export-xdpi="96"
       inkscape:export-ydpi="96"><tspan
         x="3348.7344"
         y="1292.5966"
         id="tspan188551"><tspan
           style="fill:#3a3a3a"
           id="tspan188547">Stress     </tspan><tspan
           style="fill:#ff0000"
           id="tspan188549">Overflow</tspan></tspan></text>
    <path
       style="fill:#000000;fill-opacity:1;stroke:url(#radialGradient2896-3);stroke-width:1.2252"
       d="m 5606.4374,2505.4165 c -48.8369,7.7881 -88.9826,37.1719 -110.6537,80.9924 -17.27,34.9208 -19.8032,77.1453 -6.8108,113.5214 12.7444,35.6823 40.6782,67.4633 72.5928,82.5922 l 7.3802,3.4986 0.073,36.8855 0.073,36.8857 -8.9421,0.6764 c -40.3511,3.0517 -75.7972,38.5041 -78.9334,78.9473 l -0.6823,8.8207 -161.2489,0.4564 c -179.1433,0.5068 -171.6046,0.1812 -206.9899,8.9431 -103.2205,25.5601 -184.5345,103.9833 -214.0156,206.4076 -5.7861,20.1033 -8.9238,38.3311 -10.6661,61.9703 l -1.4555,19.7472 -9.248,0.7263 c -35.8877,2.8187 -68.3055,31.4447 -76.8463,67.8585 -2.0277,8.6459 -2.2375,16.0328 -2.2375,78.7647 0,62.7319 0.2127,70.1189 2.2375,78.7647 4.3129,18.3867 16.0251,36.9826 30.8728,49.0189 13.5924,11.0187 34.4066,19.1801 49.0246,19.223 l 6.1727,0.014 1.4797,19.9097 c 1.5787,21.2396 3.795,35.9623 7.794,51.7649 10.6286,42.004 29.2169,79.8513 55.9631,113.944 9.4365,12.0283 38.1444,40.3738 49.8397,49.2102 48.9975,37.0198 101.545,57.0842 161.4697,61.6553 8.9017,0.6823 17.1028,1.2362 18.2238,1.2384 1.8773,0 2.0828,6.8725 2.5882,86.6856 0.4621,72.7755 0.8803,88.9443 2.6116,100.7732 7.7125,52.6942 26.2782,97.7514 57.5523,139.674 11.7679,15.7756 42.4947,46.3645 58.6408,58.3797 40.0592,29.809 84.9132,48.4575 135.6993,56.4188 13.0928,2.0519 26.5334,2.2082 189.9069,2.2082 165.8758,0 176.6482,-0.1322 190.5194,-2.2978 62.9949,-9.8443 117.3896,-36.6001 162.2122,-79.791 50.3451,-48.5111 79.1601,-105.5997 89.6706,-177.6547 0.9361,-6.4178 1.6242,-39.9367 1.9933,-97.0971 0.5208,-80.389 0.7262,-87.2967 2.6028,-87.2989 1.1218,0 9.4828,-0.5576 18.5803,-1.242 58.4487,-4.3775 109.9215,-23.6922 158.0511,-59.3078 15.4793,-11.4539 46.2097,-42.29 58.0929,-58.2924 35.6933,-48.0651 55.7116,-103.6075 59.0605,-163.8714 l 0.8341,-15.0089 6.2482,-0.014 c 9.7439,-0.029 21.1326,-3.2105 33.8161,-9.4486 9.6207,-4.7318 13.4611,-7.5416 22.1435,-16.2008 8.5238,-8.5014 11.5654,-12.5981 16.1336,-21.733 10.0718,-20.1414 10.1188,-20.5974 10.1188,-99.6242 0,-78.7313 -0.081,-79.5648 -9.8231,-99.0213 -13.2748,-26.5181 -40.6915,-45.358 -69.2747,-47.603 l -9.2604,-0.7277 -1.4181,-19.7461 c -5.1764,-72.0844 -32.9423,-134.8618 -82.3235,-186.1313 -39.2286,-40.7288 -87.7082,-68.7622 -142.1661,-82.2077 -35.672,-8.8076 -27.9728,-8.4739 -207.1886,-8.9811 l -161.2445,-0.4563 -0.7336,-9.4876 c -0.8481,-10.9981 -5.8,-26.0725 -11.9683,-36.4324 -5.9122,-9.9303 -19.7819,-23.6202 -30.1956,-29.8036 -10.939,-6.496 -25.0948,-11.1256 -36.7902,-12.0321 l -8.8825,-0.6889 v -36.5587 -36.5586 l 6.4323,-3.2202 c 20.3145,-10.1693 44.4879,-31.2012 56.2089,-48.9053 17.4587,-26.3703 25.5732,-52.8025 25.5732,-83.3011 0,-24.8052 -4.6071,-44.3961 -15.6327,-66.4727 -27.9735,-56.0107 -91.7101,-89.106 -152.8328,-79.3591 z m 36.7563,72.3188 c 27.6947,5.7945 50.6591,27.7663 57.5742,55.0862 2.8252,11.1614 2.4034,27.8713 -0.9992,39.6208 -10.1598,35.0769 -44.7792,57.7484 -80.9765,53.0307 -46.2362,-6.0261 -75.7202,-50.8217 -62.8035,-95.4185 10.8245,-37.371 49.0474,-60.3031 87.205,-52.3192 z m 458.6115,668.9708 c 45.5113,8.7317 84.8061,38.9531 105.1316,80.856 28.8392,59.4557 16.3648,128.357 -31.5036,174.0011 -45.2466,43.1451 -111.7709,53.075 -168.3533,25.1297 -40.0136,-19.7619 -66.9124,-52.7976 -78.7655,-96.7358 -2.8904,-10.7137 -3.1699,-13.8527 -3.2308,-36.234 -0.073,-21.4892 0.2714,-25.8366 2.6799,-35.3347 15.5424,-61.277 65.352,-105.7356 127.1981,-113.5338 11.4517,-1.4439 34.3941,-0.5369 46.8436,1.8515 z m -989.7762,34.9978 c 3.9087,1.773 14.442,11.4074 36.8077,33.6663 23.7479,23.6347 32.0532,31.1825 34.3135,31.1825 2.2632,0 10.6667,-7.663 34.8673,-31.7945 20.8435,-20.7842 33.4625,-32.4519 36.4402,-33.693 2.5053,-1.0443 8.0485,-1.8987 12.3182,-1.8987 13.9827,0 25.78,8.6407 29.236,21.4141 1.9712,7.283 0.6163,18.0945 -3.0305,24.2252 -1.705,2.8636 -16.9187,18.9861 -33.8095,35.8275 -16.8908,16.8417 -30.7106,31.4296 -30.7106,32.4177 0,0.988 14.2659,16.1543 31.7017,33.7023 17.4367,17.5482 32.7289,33.8354 33.9826,36.194 1.6763,3.1513 2.2852,6.9122 2.2977,14.186 0,8.8945 -0.3595,10.5056 -3.6908,15.8952 -5.3481,8.6507 -13.2499,13.2186 -23.9071,13.8208 -14.3429,0.8104 -14.315,0.8295 -50.2593,-34.8651 -24.5373,-24.3671 -33.2688,-32.316 -35.4998,-32.316 -2.2316,0 -10.6477,7.6642 -34.2327,31.1744 -34.5563,34.4466 -36.895,36.1394 -49.9966,36.1853 -12.5104,0.044 -21.7797,-5.5101 -27.5613,-16.5135 -3.3871,-6.4463 -3.5845,-20.1023 -0.3815,-26.3419 1.2112,-2.3585 16.4793,-18.647 33.929,-36.1968 23.9064,-24.0427 31.7282,-32.6374 31.7282,-34.8651 0,-2.2278 -7.8218,-10.8226 -31.7282,-34.8653 -17.4497,-17.5496 -32.7178,-33.8382 -33.929,-36.1966 -3.2184,-6.27 -3.0041,-19.8825 0.4182,-26.458 2.9454,-5.6608 9.895,-12.2351 15.524,-14.6863 5.8198,-2.5341 18.7293,-2.1239 25.1741,0.7995 z m 531.0744,255.2507 c 3.0365,1.7795 6.8609,5.0148 8.4997,7.1898 4.5228,6.004 75.2427,148.1914 76.8185,154.4485 3.1751,12.6094 -3.6571,26.7586 -15.9254,32.9805 l -6.6436,3.3694 h -77.9739 -77.9739 l -6.6436,-3.3694 c -12.2227,-6.1984 -18.7857,-19.6712 -15.8857,-32.6107 0.7043,-3.151 17.8834,-38.9354 38.1715,-79.5214 39.5243,-79.0651 40.4553,-80.5957 51.5256,-84.6667 7.7616,-2.8547 19.0534,-1.9089 26.0308,2.18 z m -155.2845,338.9651 c 4.9042,1.8524 10.1246,7.0823 12.7656,12.7869 2.1459,4.6343 2.2691,9.9633 2.2691,98.0163 0,104.3386 0.4769,98.5996 -8.9164,106.849 -10.7173,9.4102 -28.7284,5.6306 -35.0103,-7.3464 -2.6183,-5.409 -2.6212,-5.5167 -2.2926,-100.9441 l 0.3301,-95.5301 3.2698,-4.9394 c 5.6158,-8.485 18.0535,-12.4943 27.5869,-8.8922 z m 75.8786,1.041 c 2.7739,1.2589 6.6335,4.3746 8.576,6.9224 l 3.5339,4.6321 v 98.2077 98.2071 l -3.5339,4.6327 c -4.1743,5.4735 -11.6916,9.2128 -18.5201,9.2128 -9.9838,0 -20.5288,-7.7536 -22.0547,-16.2166 -0.3888,-2.17 -0.5502,-46.7182 -0.3521,-98.9949 l 0.3594,-95.0496 3.5331,-4.632 c 4.1751,-5.4728 11.6924,-9.2121 18.5202,-9.2121 2.696,0 7.1704,1.0308 9.9441,2.2904 z m 76.7356,1.2904 c 2.3138,1.5861 5.5351,4.8221 7.1594,7.1917 l 2.9527,4.3093 v 96.9701 96.9709 l -3.2887,4.9688 c -5.7927,8.7535 -18.5656,12.5874 -28.3374,8.504 -5.0378,-2.1047 -10.815,-8.1805 -12.6872,-13.3415 -2.0673,-5.6995 -2.0673,-188.5042 0,-194.2029 1.8069,-4.9806 7.5335,-11.1415 12.4165,-13.357 5.5864,-2.5354 16.659,-1.5252 21.7847,1.9866 z m 71.372,-1.319 c 5.6702,2.6168 9.6999,6.6429 11.5582,11.5478 0.8841,2.3344 1.3065,34.0729 1.3065,98.243 0,64.1702 -0.4254,95.9079 -1.3065,98.243 -4.1742,11.016 -18.7351,16.7844 -30.2367,11.9785 -5.8205,-2.432 -8.6039,-5.0099 -11.4694,-10.625 -2.2177,-4.3452 -2.3197,-8.7432 -2.3197,-99.5965 0,-90.854 0.1027,-95.252 2.3197,-99.5972 2.8163,-5.5176 5.5938,-8.1402 11.1935,-10.5692 5.7582,-2.4973 13.0422,-2.3527 18.9544,0.3741 z m 77.5411,1.6558 c 2.8919,1.9132 5.9174,5.3943 7.4624,8.5862 2.5794,5.3283 2.5985,6.0802 2.5985,99.5488 0,93.4687 0,94.2199 -2.5985,99.5481 -4.7502,9.8129 -17.6098,14.9746 -28.4203,11.4063 -5.5116,-1.8187 -12.536,-9.526 -14.2249,-15.6077 -1.7856,-6.4294 -1.7995,-184.2148 0,-190.6398 1.5472,-5.5704 7.6869,-12.8669 12.7686,-15.1734 5.8029,-2.6344 16.6267,-1.5097 22.4296,2.3315 z"
       id="path1408-3"
       inkscape:export-filename="C:\Users\diego\Downloads\Full_Small_GlyphAbove.png"
       inkscape:export-xdpi="96"
       inkscape:export-ydpi="96" />
    <text
       xml:space="preserve"
       transform="translate(-1344.5,-317.98032)"
       id="text38053"
       style="fill:black;fill-opacity:1;line-height:1.25;stroke:none;font-family:sans-serif;font-style:normal;font-weight:normal;font-size:40px;white-space:pre;shape-inside:url(#rect38055)" />
    <text
       xml:space="preserve"
       transform="matrix(3.1204281,0,0,3.1204281,-6784.0863,918.56076)"
       id="text14859-1"
       style="font-style:normal;font-variant:normal;font-weight:normal;font-stretch:normal;font-size:192px;line-height:1.25;font-family:'Franklin Gothic Demi';-inkscape-font-specification:'Franklin Gothic Demi';white-space:pre;shape-inside:url(#rect14861-8);fill:#454545;fill-opacity:1;stroke:none"
       inkscape:export-filename="C:\Users\diego\Downloads\Full_Small_GlyphAbove.png"
       inkscape:export-xdpi="96"
       inkscape:export-ydpi="96"><tspan
         x="3348.7344"
         y="1292.5966"
         id="tspan188557"><tspan
           style="fill:#3a3a3a"
           id="tspan188553">Stress</tspan><tspan
           style="fill:#ff0000"
           id="tspan188555">Overflow</tspan></tspan></text>
    <text
       xml:space="preserve"
       transform="translate(-1344.5,-317.98032)"
       id="text182316"
       style="line-height:1.25;font-family:'Franklin Gothic Demi';font-size:40px;-inkscape-font-specification:'Franklin Gothic Demi';white-space:pre;shape-inside:url(#rect182318)" />
  </g>
</svg>
